# xmcd
#
# Track frame offsets: 
#        150
#        13992
#        28014
#        42620
#        56728
#        71835
#        84890
#        100888
#        120098
#        134519
#        148137
#        162624
#        174935
#        186743
#        202024
#        218159
#        231161
#        243423
#        258614
#        274985
#
# Disc length: 3875 seconds
#
# Revision: 2
# Processed by: cddbd v1.5.2PL0 Copyright (c) Steve Scherf et al.
# Submitted via: ExactAudioCopyFreeDBPlugin 1.0
#
DISCID=3a0f2114
DTITLE=Dagmar Lay D. - Best of das Doppelalbum ( CD 1)
DYEAR=2006
DGENRE=Country
TTITLE0=Hast Du da ganz genau hingeschaut
TTITLE1=Dafür bin ich
TTITLE2=Jolene
TTITLE3=Ich weine keine Tränen wegen Dir
TTITLE4=Es wird Zeit daß ich geh'
TTITLE5=Pausenlos und ohne Ende
TTITLE6=Wild's Wasser
TTITLE7=Du gingst in die Dunkelheit
TTITLE8=Ich bin wieder mal zu Haus
TTITLE9=Mit dem Jeep durch den Canyon
TTITLE10=Nichts bleibt wie es mal war
TTITLE11=Asta la Vista - Vamos Muchachos
TTITLE12=Dieter fährt - Petra putzt
TTITLE13=Schau dem Morgen ins Gesicht
TTITLE14=Liebe lebt länger
TTITLE15=Zu lange gegen den Wind
TTITLE16=Tränen im Kaffee
TTITLE17=Überall am Straßenrand
TTITLE18=Das imponiert mir nicht (Das interessiert mich nicht)
TTITLE19=Alles ist möglich [Spezial Mix]
EXTD=
EXTT0=
EXTT1=
EXTT2=
EXTT3=
EXTT4=
EXTT5=
EXTT6=
EXTT7=
EXTT8=
EXTT9=
EXTT10=
EXTT11=
EXTT12=
EXTT13=
EXTT14=
EXTT15=
EXTT16=
EXTT17=
EXTT18=
EXTT19=
PLAYORDER=
